<svg width="64" height="64" viewBox="0 0 64 64" fill="none" xmlns="http://www.w3.org/2000/svg">
  <defs>
    <linearGradient id="sparkyFlameBlink" x1="32" y1="8" x2="32" y2="58" gradientUnits="userSpaceOnUse">
      <stop stop-color="#FDBA74" />
      <stop offset="0.55" stop-color="#F97316" />
      <stop offset="1" stop-color="#DC2626" />
    </linearGradient>
  </defs>
  <path
    d="M41 11.5C43.8 19.4 41 24.1 37.5 28.1C34.8 31.2 32.3 34.1 32.3 38.2C32.3 42.8 35.9 46.5 40.3 46.5C44.7 46.5 48.2 42.8 48.2 38.2C48.2 33.5 45.8 30.3 43.2 27.1C40.7 24.1 38.3 21.1 39 16.3C39.2 14.7 39.9 13 41 11.5Z"
    fill="url(#sparkyFlameBlink)"
    opacity="0.86"
  />
  <path
    d="M33.3 7C36.8 18.2 32.5 24.2 27.7 29.8C23.6 34.4 19.4 39.2 19.4 46.4C19.4 55.6 26.2 62.6 34.8 62.6C43.4 62.6 50.2 55.6 50.2 46.4C50.2 39.9 46.9 35.2 43.2 30.3C39.8 25.8 36.3 21.1 36.5 14.9C36.6 12.2 37.3 9.5 38.4 6.8L33.3 7Z"
    fill="url(#sparkyFlameBlink)"
  />
  <path
    d="M34.2 32C40.3 32 45.2 36.9 45.2 43C45.2 49.1 40.3 54 34.2 54C28.1 54 23.2 49.1 23.2 43C23.2 36.9 28.1 32 34.2 32Z"
    fill="#FFF7ED"
    opacity="0.97"
  />
  <path
    d="M29.2 42.5H31.6"
    stroke="#7C2D12"
    stroke-width="1.6"
    stroke-linecap="round"
  />
  <path
    d="M36.7 42.5H39.1"
    stroke="#7C2D12"
    stroke-width="1.6"
    stroke-linecap="round"
  />
  <path
    d="M30.8 46.6C31.8 47.6 33 48.2 34.2 48.2C35.4 48.2 36.5 47.6 37.6 46.6"
    stroke="#9A3412"
    stroke-width="1.4"
    stroke-linecap="round"
  />
  <path
    d="M30.3 36C32.7 34.8 35.4 34.6 38.1 35.6"
    stroke="white"
    stroke-opacity="0.55"
    stroke-width="1.5"
    stroke-linecap="round"
  />
</svg>
