<svg width="64" height="64" viewBox="0 0 64 64" fill="none" xmlns="http://www.w3.org/2000/svg">
  <defs>
    <linearGradient id="flameCore" x1="32" y1="10" x2="32" y2="56" gradientUnits="userSpaceOnUse">
      <stop stop-color="#FDBA74" />
      <stop offset="0.55" stop-color="#F97316" />
      <stop offset="1" stop-color="#DC2626" />
    </linearGradient>
  </defs>
  <path
    d="M33.8 6.6c1.8 6.9-.8 10.8-4.4 15.2-2.9 3.5-6.2 7.4-6.2 13.2 0 5 3.9 9.2 8.8 9.2 5 0 8.9-4.2 8.9-9.2 0-4.6-2.8-8-5.3-11.1-2.3-2.8-4.5-5.5-4.2-9.6.2-2.7 1.2-5.1 2.4-7.7z"
    fill="url(#flameCore)"
  />
  <path
    d="M44.6 25.2c1.4 4.3 3.6 7.3 3.6 12.4 0 9.8-7.4 18-16.2 18s-16.2-8.2-16.2-18c0-8 5.5-13.2 10.3-18.6 3.2-3.6 6.1-7 7.1-12.8 6.2 4.6 11.4 11.3 11.4 19z"
    fill="url(#flameCore)"
    opacity="0.92"
  />
  <path
    d="M31.8 30.9c1.8 2.4 4.1 4.8 4.1 8.3 0 3.2-2.5 5.8-5.7 5.8-3.1 0-5.7-2.6-5.7-5.8 0-3.7 2.4-5.8 4.5-7.8 1.2-1.2 2.4-2.3 2.8-4.3z"
    fill="#FFF7ED"
  />
</svg>
